<svg xmlns="http://www.w3.org/2000/svg" width="129" height="119" viewBox="0 0 129 119">
    <path fill="#000" fill-rule="nonzero" d="M108.898 101.209c3.452 15.867-13.754 19.31-21.332 17.244-7.58-2.066-23.038-2.41-23.038-2.41s-15.5.344-23.08 2.41c-7.578 2.08-24.799-1.377-21.36-17.244 3.438-15.867 18.596-15.178 22.75-36.569 4.14-21.39 21.705-20.012 21.705-20.012S82.064 43.25 86.205 64.64c4.126 21.39 19.254 20.702 22.693 36.569zM80.43 43.236c9.327 2.697 19.627-4.677 23.023-16.47 3.395-11.778-1.404-23.513-10.73-26.21C83.396-2.14 73.095 5.233 69.7 17.026c-3.395 11.778 1.405 23.513 10.731 26.21zm38.653-4.29C110.1 35.275 99.07 41.5 94.442 52.863c-4.627 11.363-1.103 23.543 7.88 27.2 8.982 3.659 20.014-2.553 24.641-13.915 4.628-11.362 1.104-23.528-7.88-27.2zm-70.53 4.29c9.327-2.697 14.127-14.432 10.731-26.21C55.89 5.247 45.575-2.126 36.262.57c-9.312 2.697-14.125 14.432-10.73 26.21 3.395 11.778 13.696 19.152 23.023 16.455zM26.679 80.063c8.983-3.673 12.507-15.853 7.88-27.2-4.628-11.348-15.66-17.59-24.642-13.916-8.983 3.672-12.507 15.852-7.88 27.2 4.628 11.362 15.66 17.588 24.642 13.916z"/>
</svg>
